# xmcd
#
# Track frame offsets:
#	150
#	24224
#	46797
#	72770
#	97416
#	118353
#	144130
#	171983
#	207898
#	240912
#
# Disc length: 3570 seconds
#
# Revision: 786438
# Processed by: cddbd v1.5.2PL0 Copyright (c) Steve Scherf et al.
# Submitted via: EZCDAudioConverter 8.0.2.1
#
DISCID=830df00a
DTITLE=Various Artist - Liên Khúc Thành Phố Buồn
DYEAR=2003
DGENRE=Miscellaneous
TTITLE0=Trường Vũ, Thanh Trúc - LK Thành Phố Buồn
TTITLE1=Mạnh Đình, Diệp Thanh Thanh - LK một người đi xa
TTITLE2=Thanh Tuyền - Hoa nở về đêm
TTITLE3=Hà Phương, Mạnh Đình - LK Hoàng Thi Thơ
TTITLE4=Chế Linh - Thương hạn
TTITLE5=Johnny Dũng, Mạnh Đình, Hà Phương, Diệp Thanh Thanh - Tiếng dân chài
TTITLE6=Thanh Tuyền, Sơn Tuyền - Đò dọc
TTITLE7=Chế Linh, Phương Hồng Quế - LK Duy Khánh
TTITLE8=Thanh Tuyền - Phận tơ tằm
TTITLE9=Chế Linh, Thiên Trang - Hái hoa rừng cho em
EXTD=
EXTT0=
EXTT1=
EXTT2=
EXTT3=
EXTT4=
EXTT5=
EXTT6=
EXTT7=
EXTT8=
EXTT9=
PLAYORDER=
